<svg width="244" height="112" viewBox="0 0 244 112" fill="none" xmlns="http://www.w3.org/2000/svg">
<path d="M198.683 110.073C195.824 113.674 190.026 111.701 189.957 107.103L188.949 39.8516H234.169C242.36 39.8516 246.928 49.3117 241.835 55.7263L198.683 110.073Z" fill="url(#paint0_linear)"/>
<path d="M198.683 110.073C195.824 113.674 190.026 111.701 189.957 107.103L188.949 39.8516H234.169C242.36 39.8516 246.928 49.3117 241.835 55.7263L198.683 110.073Z" fill="url(#paint1_linear)" fill-opacity="0.2"/>
<path d="M180.292 1.85984C183.152 -1.74155 188.95 0.231757 189.019 4.82982L189.46 72.081H144.806C136.616 72.081 132.048 62.6209 137.141 56.2063L180.292 1.85984Z" fill="#3ECF8E"/>
<g clip-path="url(#clip0)">
<path d="M37.5 56C37.5 51.0493 39.4754 46.3014 42.9917 42.8007C46.5081 39.3 51.2772 37.3333 56.25 37.3333C61.2228 37.3333 65.9919 39.3 69.5083 42.8007C73.0246 46.3014 75 51.0493 75 56C75 60.9507 73.0246 65.6987 69.5083 69.1993C65.9919 72.7 61.2228 74.6667 56.25 74.6667C51.2772 74.6667 46.5081 72.7 42.9917 69.1993C39.4754 65.6987 37.5 60.9507 37.5 56Z" fill="#1ABCFE"/>
<path d="M0 93.3333C0 88.3826 1.97544 83.6347 5.49175 80.134C9.00805 76.6333 13.7772 74.6667 18.75 74.6667H37.5V93.3333C37.5 98.284 35.5246 103.032 32.0083 106.533C28.4919 110.033 23.7228 112 18.75 112C13.7772 112 9.00805 110.033 5.49175 106.533C1.97544 103.032 0 98.284 0 93.3333H0Z" fill="#0ACF83"/>
<path d="M37.5 0V37.3333H56.25C61.2228 37.3333 65.9919 35.3667 69.5083 31.866C73.0246 28.3653 75 23.6174 75 18.6667C75 13.716 73.0246 8.96802 69.5083 5.46734C65.9919 1.96666 61.2228 0 56.25 0L37.5 0Z" fill="#FF7262"/>
<path d="M0 18.6667C0 23.6174 1.97544 28.3653 5.49175 31.866C9.00805 35.3667 13.7772 37.3333 18.75 37.3333H37.5V0H18.75C13.7772 0 9.00805 1.96666 5.49175 5.46734C1.97544 8.96802 0 13.716 0 18.6667H0Z" fill="#F24E1E"/>
<path d="M0 56C0 60.9507 1.97544 65.6987 5.49175 69.1993C9.00805 72.7 13.7772 74.6667 18.75 74.6667H37.5V37.3333H18.75C13.7772 37.3333 9.00805 39.3 5.49175 42.8007C1.97544 46.3014 0 51.0493 0 56H0Z" fill="#A259FF"/>
</g>
<path fill-rule="evenodd" clip-rule="evenodd" d="M118.973 42.0269C119.787 42.8405 119.787 44.1595 118.973 44.9731L93.9732 69.9731C93.1596 70.7867 91.8405 70.7867 91.0269 69.9731C90.2133 69.1595 90.2133 67.8405 91.0269 67.0269L116.027 42.0269C116.841 41.2133 118.16 41.2133 118.973 42.0269Z" fill="#B2B9C1"/>
<path fill-rule="evenodd" clip-rule="evenodd" d="M91.0269 42.0269C91.8405 41.2133 93.1596 41.2133 93.9732 42.0269L118.973 67.0269C119.787 67.8405 119.787 69.1595 118.973 69.9731C118.16 70.7867 116.841 70.7867 116.027 69.9731L91.0269 44.9731C90.2133 44.1595 90.2133 42.8405 91.0269 42.0269Z" fill="#B2B9C1"/>
<defs>
<linearGradient id="paint0_linear" x1="188.949" y1="54.7628" x2="229.139" y2="71.6184" gradientUnits="userSpaceOnUse">
<stop stop-color="#249361"/>
<stop offset="1" stop-color="#3ECF8E"/>
</linearGradient>
<linearGradient id="paint1_linear" x1="171.131" y1="30.3669" x2="189.46" y2="64.8695" gradientUnits="userSpaceOnUse">
<stop/>
<stop offset="1" stop-opacity="0"/>
</linearGradient>
<clipPath id="clip0">
<rect width="75" height="112" fill="white"/>
</clipPath>
</defs>
</svg>
